<?xml version="1.0" encoding="iso-8859-1"?>
<!-- Generator: Adobe Illustrator 23.0.2, SVG Export Plug-In . SVG Version: 6.00 Build 0)  -->
<svg version="1.1" id="Layer_1" xmlns="http://www.w3.org/2000/svg" xmlns:xlink="http://www.w3.org/1999/xlink" x="0px" y="0px"
	 viewBox="0 0 22 24" style="enable-background:new 0 0 22 24;" xml:space="preserve">
<g id="share-connect-7_1_">
	<path d="M13.939,6.897c-0.193-0.272-0.362-0.56-0.5-0.867L8.06,9.104c0.193,0.271,0.362,0.56,0.5,0.867L13.939,6.897z"/>
	<path d="M13.439,17.971c0.138-0.308,0.307-0.596,0.5-0.867L8.56,14.029c-0.138,0.308-0.307,0.596-0.5,0.867L13.439,17.971z"/>
	<circle cx="4" cy="12" r="4"/>
	<circle cx="18" cy="4" r="4"/>
	<path d="M18,15c0.342,0,0.677,0.035,1,0.101V8.899C18.677,8.965,18.342,9,18,9V15z"/>
	<circle cx="18" cy="20" r="4"/>
</g>
</svg>
